<svg xmlns="http://www.w3.org/2000/svg" version="1.1" xmlns:xlink="http://www.w3.org/1999/xlink" xmlns:svgjs="http://svgjs.dev/svgjs" width="1500" height="1500" viewBox="0 0 1500 1500"><rect width="1500" height="1500" fill="#ffffff"></rect><g transform="matrix(0.6666666666666666,0,0,0.6666666666666666,249.39393939393943,673.135097935491)"><svg viewBox="0 0 396 61" data-background-color="#ffffff" preserveAspectRatio="xMidYMid meet" height="231" width="1500" xmlns="http://www.w3.org/2000/svg" xmlns:xlink="http://www.w3.org/1999/xlink"><g id="tight-bounds" transform="matrix(1,0,0,1,0.2400000000000091,-0.05351281860359336)"><svg viewBox="0 0 395.52 61.107025637207165" height="61.107025637207165" width="395.52"><g><svg viewBox="0 0 482.86530624212463 74.60169561047583" height="61.107025637207165" width="395.52"><g transform="matrix(1,0,0,1,87.34530624212466,10.310364588712652)"><svg viewBox="0 0 395.52 53.980966433050526" height="53.980966433050526" width="395.52"><g id="textblocktransform"><svg viewBox="0 0 395.52 53.980966433050526" height="53.980966433050526" width="395.52" id="textblock"><g><svg viewBox="0 0 395.52 53.980966433050526" height="53.980966433050526" width="395.52"><g transform="matrix(1,0,0,1,0,0)"><svg width="395.52" viewBox="5.05 -36.5 271.07 37" height="53.980966433050526" data-palette-color="#0080ff"><path d="M5.05-33L15.5-33Q19-33 21.5-31.88 24-30.75 25.38-28.65 26.75-26.55 26.75-23.6L26.75-23.6Q26.75-20.65 25.38-18.57 24-16.5 21.5-15.38 19-14.25 15.5-14.25L15.5-14.25 6.45-14.25 6.45 0 5.05 0 5.05-33ZM6.45-15.5L15.4-15.5Q20.1-15.5 22.7-17.65 25.3-19.8 25.3-23.6L25.3-23.6Q25.3-27.45 22.7-29.6 20.1-31.75 15.4-31.75L15.4-31.75 6.45-31.75 6.45-15.5ZM48.65-8.45L48.65-16.7Q48.65-20.2 46.7-22.25 44.75-24.3 41.1-24.3L41.1-24.3Q38.05-24.3 35.82-22.95 33.6-21.6 32.5-18.6L32.5-18.6 31.4-19.35Q32.5-22.4 35.02-23.95 37.55-25.5 41.15-25.5L41.15-25.5Q43.9-25.5 45.9-24.5 47.9-23.5 48.97-21.55 50.05-19.6 50.05-16.85L50.05-16.85 50.05-4.1Q50.05-0.8 52.8-0.8L52.8-0.8Q53.85-0.8 54.55-1.2L54.55-1.2 54.45-0.05Q53.7 0.4 52.5 0.4L52.5 0.4Q51.6 0.4 50.7 0 49.8-0.4 49.22-1.4 48.65-2.4 48.65-4.3L48.65-4.3 48.65-6.25 49.1-6.45Q48.7-4.1 47.15-2.55 45.6-1 43.45-0.25 41.3 0.5 39.1 0.5L39.1 0.5Q36.65 0.5 34.85-0.23 33.05-0.95 32.05-2.35 31.05-3.75 31.05-5.75L31.05-5.75Q31.05-8.55 32.92-10.18 34.8-11.8 38.25-12.45L38.25-12.45 48.9-14.55 48.9-13.35 39.05-11.4Q35.75-10.8 34.12-9.43 32.5-8.05 32.5-5.85L32.5-5.85Q32.5-3.4 34.25-2.08 36-0.75 39.3-0.75L39.3-0.75Q40.8-0.75 42.4-1.18 44-1.6 45.45-2.53 46.9-3.45 47.77-4.93 48.65-6.4 48.65-8.45L48.65-8.45ZM58.95-36.5L60.34-36.5 60.34-5.55Q60.34-2.95 61.2-1.85 62.05-0.75 63.84-0.75L63.84-0.75Q64.95-0.75 65.55-0.9 66.15-1.05 66.84-1.35L66.84-1.35 66.7-0.1Q66.15 0.15 65.4 0.33 64.65 0.5 63.65 0.5L63.65 0.5Q61.3 0.5 60.12-0.95 58.95-2.4 58.95-5.5L58.95-5.5 58.95-36.5ZM81.64 0.5L81.64 0.5Q78.29 0.5 75.64-1.05 72.99-2.6 71.44-5.53 69.89-8.45 69.89-12.5L69.89-12.5Q69.89-16.6 71.42-19.5 72.94-22.4 75.49-23.95 78.04-25.5 81.24-25.5L81.24-25.5Q84.59-25.5 86.97-24 89.34-22.5 90.62-19.78 91.89-17.05 91.89-13.3L91.89-13.3Q91.89-13.1 91.89-12.88 91.89-12.65 91.84-12.5L91.84-12.5 70.74-12.5 70.74-13.75 91.24-13.75 90.59-13.45Q90.54-18.3 88.12-21.3 85.69-24.3 81.24-24.3L81.24-24.3Q78.39-24.3 76.14-22.88 73.89-21.45 72.59-18.82 71.29-16.2 71.29-12.5L71.29-12.5Q71.29-8.8 72.62-6.18 73.94-3.55 76.27-2.15 78.59-0.75 81.59-0.75L81.59-0.75Q84.59-0.75 86.94-2.15 89.29-3.55 90.54-6L90.54-6 91.64-5.4Q90.79-3.55 89.29-2.25 87.79-0.95 85.84-0.23 83.89 0.5 81.64 0.5ZM100.14-31.4L101.54-31.8 101.54-6.4Q101.54-3.65 102.74-2.2 103.94-0.75 106.44-0.75L106.44-0.75Q107.79-0.75 108.89-1.23 109.99-1.7 110.84-2.6L110.84-2.6 111.44-1.45Q110.64-0.6 109.29-0.05 107.94 0.5 106.34 0.5L106.34 0.5Q104.39 0.5 102.97-0.25 101.54-1 100.84-2.53 100.14-4.05 100.14-6.3L100.14-6.3 100.14-31.4ZM95.14-25L111.09-25 111.09-23.8 95.14-23.8 95.14-25ZM117.44-31.4L118.84-31.8 118.84-6.4Q118.84-3.65 120.04-2.2 121.24-0.75 123.74-0.75L123.74-0.75Q125.09-0.75 126.19-1.23 127.29-1.7 128.14-2.6L128.14-2.6 128.74-1.45Q127.94-0.6 126.59-0.05 125.24 0.5 123.64 0.5L123.64 0.5Q121.69 0.5 120.26-0.25 118.84-1 118.14-2.53 117.44-4.05 117.44-6.3L117.44-6.3 117.44-31.4ZM112.44-25L128.39-25 128.39-23.8 112.44-23.8 112.44-25ZM143.34 0.5L143.34 0.5Q139.99 0.5 137.34-1.05 134.69-2.6 133.14-5.53 131.59-8.45 131.59-12.5L131.59-12.5Q131.59-16.6 133.11-19.5 134.64-22.4 137.19-23.95 139.74-25.5 142.94-25.5L142.94-25.5Q146.29-25.5 148.66-24 151.04-22.5 152.31-19.78 153.59-17.05 153.59-13.3L153.59-13.3Q153.59-13.1 153.59-12.88 153.59-12.65 153.54-12.5L153.54-12.5 132.44-12.5 132.44-13.75 152.94-13.75 152.29-13.45Q152.24-18.3 149.81-21.3 147.39-24.3 142.94-24.3L142.94-24.3Q140.09-24.3 137.84-22.88 135.59-21.45 134.29-18.82 132.99-16.2 132.99-12.5L132.99-12.5Q132.99-8.8 134.31-6.18 135.64-3.55 137.96-2.15 140.29-0.75 143.29-0.75L143.29-0.75Q146.29-0.75 148.64-2.15 150.99-3.55 152.24-6L152.24-6 153.34-5.4Q152.49-3.55 150.99-2.25 149.49-0.95 147.54-0.23 145.59 0.5 143.34 0.5ZM185.48-8.8L186.88-8.3Q186.03-5.55 184.18-3.55 182.33-1.55 179.71-0.53 177.08 0.5 173.78 0.5L173.78 0.5Q169.33 0.5 166.01-1.58 162.68-3.65 160.83-7.45 158.98-11.25 158.98-16.5L158.98-16.5Q158.98-21.75 160.83-25.55 162.68-29.35 166.01-31.43 169.33-33.5 173.73-33.5L173.73-33.5Q177.18-33.5 179.73-32.55 182.28-31.6 183.98-29.7 185.68-27.8 186.53-25L186.53-25 185.18-24.35Q183.98-28.3 181.18-30.28 178.38-32.25 173.78-32.25L173.78-32.25Q169.78-32.25 166.78-30.33 163.78-28.4 162.11-24.88 160.43-21.35 160.43-16.5L160.43-16.5Q160.43-11.65 162.11-8.13 163.78-4.6 166.78-2.68 169.78-0.75 173.78-0.75L173.78-0.75Q178.23-0.75 181.31-2.88 184.38-5 185.48-8.8L185.48-8.8ZM203.23-25.5L203.23-25.5Q206.73-25.5 209.38-23.95 212.03-22.4 213.53-19.48 215.03-16.55 215.03-12.5L215.03-12.5Q215.03-8.45 213.53-5.53 212.03-2.6 209.38-1.05 206.73 0.5 203.23 0.5L203.23 0.5Q199.83 0.5 197.18-1.05 194.53-2.6 193.01-5.53 191.48-8.45 191.48-12.5L191.48-12.5Q191.48-16.55 193.01-19.48 194.53-22.4 197.18-23.95 199.83-25.5 203.23-25.5ZM203.28-24.3L203.28-24.3Q200.18-24.3 197.86-22.88 195.53-21.45 194.21-18.82 192.88-16.2 192.88-12.5L192.88-12.5Q192.88-8.85 194.21-6.2 195.53-3.55 197.86-2.13 200.18-0.7 203.28-0.7L203.28-0.7Q206.33-0.7 208.68-2.13 211.03-3.55 212.33-6.2 213.63-8.85 213.63-12.5L213.63-12.5Q213.63-16.2 212.33-18.82 211.03-21.45 208.68-22.88 206.33-24.3 203.28-24.3ZM221.78-36.5L223.18-36.5 223.18-5.55Q223.18-2.95 224.03-1.85 224.88-0.75 226.68-0.75L226.68-0.75Q227.78-0.75 228.38-0.9 228.98-1.05 229.68-1.35L229.68-1.35 229.53-0.1Q228.98 0.15 228.23 0.33 227.48 0.5 226.48 0.5L226.48 0.5Q224.13 0.5 222.95-0.95 221.78-2.4 221.78-5.5L221.78-5.5 221.78-36.5ZM244.48-25.5L244.48-25.5Q247.98-25.5 250.63-23.95 253.28-22.4 254.78-19.48 256.28-16.55 256.28-12.5L256.28-12.5Q256.28-8.45 254.78-5.53 253.28-2.6 250.63-1.05 247.98 0.5 244.48 0.5L244.48 0.5Q241.08 0.5 238.43-1.05 235.78-2.6 234.25-5.53 232.73-8.45 232.73-12.5L232.73-12.5Q232.73-16.55 234.25-19.48 235.78-22.4 238.43-23.95 241.08-25.5 244.48-25.5ZM244.53-24.3L244.53-24.3Q241.43-24.3 239.1-22.88 236.78-21.45 235.45-18.82 234.13-16.2 234.13-12.5L234.13-12.5Q234.13-8.85 235.45-6.2 236.78-3.55 239.1-2.13 241.43-0.7 244.53-0.7L244.53-0.7Q247.58-0.7 249.93-2.13 252.28-3.55 253.58-6.2 254.88-8.85 254.88-12.5L254.88-12.5Q254.88-16.2 253.58-18.82 252.28-21.45 249.93-22.88 247.58-24.3 244.53-24.3ZM264.62 0L263.22 0 263.22-25 264.47-25 264.57-18.95Q265.47-21.8 267.6-23.65 269.72-25.5 272.72-25.5L272.72-25.5Q273.92-25.5 274.77-25.23 275.62-24.95 276.12-24.45L276.12-24.45 275.62-23.25Q275.12-23.7 274.47-23.98 273.82-24.25 272.47-24.25L272.47-24.25Q270.27-24.25 268.5-22.88 266.72-21.5 265.67-19.25 264.62-17 264.62-14.35L264.62-14.35 264.62 0Z" opacity="1" transform="matrix(1,0,0,1,0,0)" fill="#000000" class="wordmark-text-0" data-fill-palette-color="primary" id="text-0"></path></svg></g></svg></g></svg></g></svg></g><g><svg viewBox="0 0 74.60169561047583 74.60169561047583" height="74.60169561047583" width="74.60169561047583"><g><svg xmlns="http://www.w3.org/2000/svg" xmlns:xlink="http://www.w3.org/1999/xlink" version="1.1" x="0" y="0" viewBox="5 5 100 100" enable-background="new 0 0 110 110" xml:space="preserve" height="74.60169561047583" width="74.60169561047583" class="icon-icon-0" data-fill-palette-color="accent" id="icon-0"><path d="M55 5C27.387 5 5 27.386 5 55s22.387 50 50 50c27.614 0 50-22.386 50-50S82.614 5 55 5zM55 97V13c23.159 0 42 18.841 42 42C97 78.159 78.159 97 55 97z" fill="#000000" data-fill-palette-color="accent"></path></svg></g></svg></g></svg></g><defs></defs></svg><rect width="395.52" height="61.107025637207165" fill="none" stroke="none" visibility="hidden"></rect></g></svg></g></svg>